# xmcd
#
# Track frame offsets: 
#        150
#        13067
#        26477
#        40162
#        53122
#        65030
#        77732
#        91330
#        103235
#        116290
#        129835
#        141290
#        153322
#        164675
#        176700
#        189675
#        201457
#        212755
#        224607
#        235512
#        247307
#        257607
#        268067
#        278617
#        290385
#        300740
#        313475
#        323922
#        334555
#
# Disc length: 4595 seconds
#
# Revision: 3
# Processed by: cddbd v1.5.2PL0 Copyright (c) Steve Scherf et al.
# Submitted via: ExactAudioCopy v0.95a5
#
DISCID=ba11f11d
DTITLE=Robert Johnson - Genius Of The Blues
DYEAR=2002
DGENRE=Blues
TTITLE0=Kindhearted Woman Blues
TTITLE1=I Believe I´ll Dust My Broom
TTITLE2=Sweet Home Chicago
TTITLE3=Rambling On My Mind
TTITLE4=When You Got A Good Friend
TTITLE5=Come On In My Kitchen
TTITLE6=Terraplane Blues
TTITLE7=Phonograph Blues
TTITLE8=32-20 Blues
TTITLE9=They´re Red Hot
TTITLE10=Dead Shrimp Blues
TTITLE11=Cross Road Blues
TTITLE12=Walking Blues
TTITLE13=Last fair Dead Gone Down
TTITLE14=Preaching Blues
TTITLE15=If I Had Possession
TTITLE16=Stones In My Passway
TTITLE17=I´m A Steady Rollin´ Man
TTITLE18=From Four Till Late
TTITLE19=Hellhound On My Trall
TTITLE20=Little Queen Of Spades
TTITLE21=Malted Milk
TTITLE22=Drunken Hearted Man
TTITLE23=Me And The Devil Blues
TTITLE24=Stop Breaking´ Down Blues
TTITLE25=Travelling Riverside Blues
TTITLE26=Honeymoon Blues
TTITLE27=Love In Vain
TTITLE28=Milkcow´s Cafe Blues
EXTD=YEAR: 2002
EXTT0=
EXTT1=
EXTT2=
EXTT3=
EXTT4=
EXTT5=
EXTT6=
EXTT7=
EXTT8=
EXTT9=
EXTT10=
EXTT11=
EXTT12=
EXTT13=
EXTT14=
EXTT15=
EXTT16=
EXTT17=
EXTT18=
EXTT19=
EXTT20=
EXTT21=
EXTT22=
EXTT23=
EXTT24=
EXTT25=
EXTT26=
EXTT27=
EXTT28=
PLAYORDER=
